# Blender v3.0.1 OBJ File: ''
# www.blender.org
mtllib display4x4.mtl
o Cube_Cube.006
v 0.500000 -2.000000 2.000000
v 0.500000 2.000000 2.000000
v -0.500000 2.000000 2.000000
v -0.500000 -2.000000 2.000000
v -0.500000 1.852508 1.852508
v -0.500000 1.852508 -1.852508
v -0.439017 1.852508 -1.852508
v -0.439017 1.852508 1.852508
v -0.500000 -2.000000 -2.000000
v -0.500000 2.000000 -2.000000
v 0.500000 2.000000 -2.000000
v 0.500000 -2.000000 -2.000000
v -0.500000 -1.852508 1.852508
v -0.500000 -1.852508 -1.852508
v -0.462241 1.852508 -1.852508
v -0.462241 1.852508 1.852508
v -0.439017 -1.852508 1.852508
v -0.439017 -1.852508 -1.852508
v -0.462241 -1.852508 1.852508
v -0.462241 -1.852508 -1.852508
vt 0.375000 0.000000
vt 0.625000 0.000000
vt 0.625000 0.250000
vt 0.375000 0.250000
vt 0.615782 0.259218
vt 0.615782 0.490782
vt 0.615782 0.490782
vt 0.615782 0.259218
vt 0.375000 0.500000
vt 0.625000 0.500000
vt 0.625000 0.750000
vt 0.375000 0.750000
vt 0.625000 1.000000
vt 0.375000 1.000000
vt 0.125000 0.500000
vt 0.125000 0.750000
vt 0.875000 0.500000
vt 0.875000 0.750000
vt 0.384218 0.259218
vt 0.384218 0.490782
vt 0.615782 0.490782
vt 0.615782 0.259218
vt 0.384218 0.259218
vt 0.384218 0.490782
vt 0.384218 0.259218
vt 0.384218 0.490782
vn 0.0000 -0.0000 1.0000
vn 0.0000 -1.0000 -0.0000
vn 0.0000 0.0000 -1.0000
vn 1.0000 0.0000 0.0000
vn 0.0000 1.0000 0.0000
vn -1.0000 0.0000 0.0000
usemtl None.005
s 1
f 1/1/1 2/2/1 3/3/1 4/4/1
f 5/5/2 6/6/2 7/7/2 8/8/2
f 9/9/3 10/10/3 11/11/3 12/12/3
f 12/12/4 11/11/4 2/13/4 1/14/4
f 4/15/2 9/9/2 12/12/2 1/16/2
f 10/10/5 3/17/5 2/18/5 11/11/5
f 5/5/6 13/19/6 4/4/6 3/3/6
f 13/19/6 14/20/6 9/9/6 4/4/6
f 6/6/6 5/5/6 3/3/6 10/10/6
f 14/20/6 6/6/6 10/10/6 9/9/6
f 8/8/5 7/7/5 15/21/5 16/22/5
f 13/19/3 5/5/3 8/8/3 17/23/3
f 6/6/1 14/20/1 18/24/1 7/7/1
f 14/20/5 13/19/5 17/23/5 18/24/5
f 19/25/6 16/22/6 15/21/6 20/26/6
f 17/23/1 8/8/1 16/22/1 19/25/1
f 7/7/3 18/24/3 20/26/3 15/21/3
f 18/24/2 17/23/2 19/25/2 20/26/2
