# Blender 3.5.1
# www.blender.org
mtllib display3x2.mtl
o Cube_Cube.006
v 0.500000 -0.999521 1.500000
v 0.500000 0.999521 1.500000
v -0.500000 0.999521 1.500000
v -0.500000 -0.999521 1.500000
v -0.500000 0.925811 1.389381
v -0.500000 0.925810 -1.389381
v -0.439017 0.925810 -1.389381
v -0.439017 0.925811 1.389381
v -0.500000 -0.999521 -1.500000
v -0.500000 0.999521 -1.500000
v 0.500000 0.999521 -1.500000
v 0.500000 -0.999521 -1.500000
v -0.500000 -0.925810 1.389381
v -0.500000 -0.925811 -1.389381
v -0.462241 0.925810 -1.389381
v -0.462241 0.925811 1.389381
v -0.439017 -0.925810 1.389381
v -0.439017 -0.925811 -1.389381
v -0.462241 -0.925810 1.389381
v -0.462241 -0.925811 -1.389381
vn -0.0000 -0.0000 1.0000
vn -0.0000 -1.0000 -0.0000
vn -0.0000 -0.0000 -1.0000
vn 1.0000 -0.0000 -0.0000
vn -0.0000 1.0000 -0.0000
vn -1.0000 -0.0000 -0.0000
vt 0.375000 0.000000
vt 0.375000 1.000000
vt 0.125000 0.750000
vt 0.625000 0.000000
vt 0.625000 1.000000
vt 0.875000 0.750000
vt 0.875000 0.500000
vt 0.625000 0.250000
vt 0.125000 0.500000
vt 0.375000 0.250000
vt 0.615782 0.259218
vt 0.615782 0.490782
vt 0.615782 0.490782
vt 0.615782 0.259218
vt 0.375000 0.500000
vt 0.625000 0.500000
vt 0.625000 0.750000
vt 0.375000 0.750000
vt 0.384218 0.259218
vt 0.384218 0.490782
vt 0.615782 0.490782
vt 0.615782 0.259218
vt 0.384218 0.259218
vt 0.384218 0.490782
vt 0.384218 0.259218
vt 0.384218 0.490782
s 1
usemtl None.005
f 1/1/1 2/4/1 3/8/1 4/10/1
f 5/11/2 6/12/2 7/13/2 8/14/2
f 9/15/3 10/16/3 11/17/3 12/18/3
f 12/18/4 11/17/4 2/5/4 1/2/4
f 4/9/2 9/15/2 12/18/2 1/3/2
f 10/16/5 3/7/5 2/6/5 11/17/5
f 5/11/6 13/19/6 4/10/6 3/8/6
f 13/19/6 14/20/6 9/15/6 4/10/6
f 6/12/6 5/11/6 3/8/6 10/16/6
f 14/20/6 6/12/6 10/16/6 9/15/6
f 8/14/5 7/13/5 15/21/5 16/22/5
f 13/19/3 5/11/3 8/14/3 17/23/3
f 6/12/1 14/20/1 18/24/1 7/13/1
f 14/20/5 13/19/5 17/23/5 18/24/5
f 19/25/6 16/22/6 15/21/6 20/26/6
f 17/23/1 8/14/1 16/22/1 19/25/1
f 7/13/3 18/24/3 20/26/3 15/21/3
f 18/24/2 17/23/2 19/25/2 20/26/2
