# Blender v3.0.1 OBJ File: 'HDD.blend'
# www.blender.org
mtllib hdd.mtl
o Cube
v 1.500000 0.200000 -0.900000
v 1.350000 0.200000 -1.000000
v 1.350000 -0.400000 -1.000000
v 1.500000 -0.400000 -0.900000
v 1.350000 0.200000 1.000000
v 1.500000 0.200000 0.900000
v 1.500000 -0.400000 0.900000
v 1.350000 -0.400000 1.000000
v -1.350000 0.200000 -1.000000
v -1.500000 0.200000 -0.900000
v -1.500000 -0.400000 -0.900000
v -1.350000 -0.400000 -1.000000
v -1.500000 0.200000 0.900000
v -1.350000 0.200000 1.000000
v -1.350000 -0.400000 1.000000
v -1.500000 -0.400000 0.900000
v 1.260000 -0.400000 -1.000000
v -1.260000 -0.400000 -1.000000
v -1.260000 0.200000 -1.000000
v 1.260000 0.200000 -1.000000
v -1.260000 0.200000 1.000000
v 1.260000 0.200000 1.000000
v 1.260000 -0.400000 1.000000
v -1.260000 -0.400000 1.000000
v 1.260000 -0.500000 -1.000000
v -1.260000 -0.500000 -1.000000
v 1.260000 -0.500000 1.000000
v -1.260000 -0.500000 1.000000
v 0.900000 -0.410000 0.900000
v 1.455000 -0.485000 0.147500
v 0.900000 -0.490000 0.900000
v 1.455000 -0.435000 0.147500
v 0.900000 -0.410000 -0.100000
v 1.455000 -0.485000 -0.027500
v 0.900000 -0.490000 -0.100000
v 1.455000 -0.435000 -0.027500
v 1.500000 -0.410000 0.875000
v 1.485000 -0.410000 0.900000
v 1.485000 -0.490000 0.900000
v 1.500000 -0.490000 0.875000
v 1.485000 -0.410000 -0.100000
v 1.500000 -0.410000 -0.075000
v 1.500000 -0.490000 -0.075000
v 1.485000 -0.490000 -0.100000
v 1.500000 -0.435000 0.147500
v 1.500000 -0.485000 0.147500
v 1.500000 -0.435000 -0.027500
v 1.500000 -0.485000 -0.027500
v 1.450000 -0.462500 0.002500
v 1.450000 -0.457500 0.002500
v 1.450000 -0.462500 -0.002500
v 1.450000 -0.457500 -0.002500
v 1.500000 -0.462500 0.002500
v 1.500000 -0.457500 0.002500
v 1.500000 -0.462500 -0.002500
v 1.500000 -0.457500 -0.002500
v 1.450000 -0.462500 0.122500
v 1.450000 -0.457500 0.122500
v 1.450000 -0.462500 0.117500
v 1.450000 -0.457500 0.117500
v 1.500000 -0.462500 0.122500
v 1.500000 -0.457500 0.122500
v 1.500000 -0.462500 0.117500
v 1.500000 -0.457500 0.117500
v 1.450000 -0.462500 0.082500
v 1.450000 -0.457500 0.082500
v 1.450000 -0.462500 0.077500
v 1.450000 -0.457500 0.077500
v 1.500000 -0.462500 0.082500
v 1.500000 -0.457500 0.082500
v 1.500000 -0.462500 0.077500
v 1.500000 -0.457500 0.077500
v 1.450000 -0.462500 0.042500
v 1.450000 -0.457500 0.042500
v 1.450000 -0.462500 0.037500
v 1.450000 -0.457500 0.037500
v 1.500000 -0.462500 0.042500
v 1.500000 -0.457500 0.042500
v 1.500000 -0.462500 0.037500
v 1.500000 -0.457500 0.037500
v -1.305000 0.222500 0.950000
v -1.450000 0.222500 0.855000
v -1.450000 0.197500 0.855000
v -1.305000 0.197500 0.950000
v -1.450000 0.222500 -0.855000
v -1.305000 0.222500 -0.950000
v -1.305000 0.197500 -0.950000
v -1.450000 0.197500 -0.855000
v 1.450000 0.222500 0.855000
v 1.305000 0.222500 0.950000
v 1.305000 0.197500 0.950000
v 1.450000 0.197500 0.855000
v 1.305000 0.222500 -0.950000
v 1.450000 0.222500 -0.855000
v 1.450000 0.197500 -0.855000
v 1.305000 0.197500 -0.950000
vt 0.946128 0.364976
vt 0.929250 0.685658
vt 0.929250 0.348098
vt 0.348098 0.973983
vt 0.550634 0.670179
vt 0.550634 0.973983
vt 0.675805 0.030518
vt 0.878341 0.020391
vt 0.878341 0.030517
vt 0.020391 0.003513
vt 0.324195 0.003513
vt 0.341073 0.030518
vt 0.003513 0.996487
vt 0.206049 0.692683
vt 0.206049 0.996487
vt 0.878341 0.348098
vt 0.675805 0.364976
vt 0.675805 0.348098
vt 0.675805 0.020391
vt 0.878341 0.003513
vt 0.878341 0.324195
vt 0.675805 0.341073
vt 0.675805 0.324195
vt 0.878341 0.668780
vt 0.675805 0.685658
vt 0.675805 0.668780
vt 0.675805 0.375103
vt 0.878341 0.364976
vt 0.878341 0.375103
vt 0.970031 0.348098
vt 0.953153 0.668780
vt 0.953153 0.364976
vt 0.919123 0.685658
vt 0.919123 0.348098
vt 0.980158 0.348098
vt 0.970031 0.685658
vt 0.294088 0.348098
vt 0.327844 0.685658
vt 0.294088 0.685658
vt 0.878341 0.658653
vt 0.675805 0.658653
vt 0.341073 0.314068
vt 0.341073 0.324195
vt 0.324195 0.341073
vt 0.003513 0.314068
vt 0.878341 0.314068
vt 0.287063 0.348098
vt 0.003513 0.685658
vt 0.003513 0.348098
vt 0.912097 0.314068
vt 0.912097 0.658653
vt 0.919123 0.003513
vt 0.952879 0.341073
vt 0.919123 0.341073
vt 0.946128 0.668780
vt 0.348098 0.670179
vt 0.341073 0.020391
vt 0.003513 0.030518
vt 0.003513 0.020391
vt 0.003513 0.692683
vt 0.675805 0.003513
vt 0.878341 0.341073
vt 0.878341 0.685658
vt 0.980158 0.685658
vt 0.327844 0.348098
vt 0.020391 0.341073
vt 0.003513 0.324195
vt 0.675805 0.314068
vt 0.287063 0.685658
vt 0.912097 0.030517
vt 0.912097 0.375103
vt 0.952879 0.003513
vt 0.659202 0.670179
vt 0.632197 0.838959
vt 0.632197 0.670179
vt 0.296050 0.849227
vt 0.314616 0.857244
vt 0.287611 0.857244
vt 0.296050 0.819690
vt 0.287611 0.696903
vt 0.314616 0.696903
vt 0.691270 0.692683
vt 0.718275 0.758508
vt 0.691270 0.758508
vt 0.213074 0.692683
vt 0.280586 0.857244
vt 0.213074 0.861463
vt 0.287611 0.692683
vt 0.314616 0.692683
vt 0.725300 0.692683
vt 0.752305 0.758507
vt 0.725300 0.758507
vt 0.314616 0.861463
vt 0.557659 0.834740
vt 0.557659 0.674399
vt 0.625171 0.670179
vt 0.759330 0.722220
vt 0.776208 0.692683
vt 0.776208 0.722220
vt 0.339933 0.438100
vt 0.334870 0.421222
vt 0.339933 0.421222
vt 0.334870 0.445125
vt 0.339933 0.462003
vt 0.334870 0.462003
vt 0.334870 0.377635
vt 0.339933 0.348098
vt 0.339933 0.377635
vt 0.339933 0.384660
vt 0.334870 0.414196
vt 0.334870 0.384660
vt 0.667071 0.680580
vt 0.666227 0.678893
vt 0.667071 0.678893
vt 0.334870 0.474655
vt 0.336558 0.469029
vt 0.336558 0.474655
vt 0.336558 0.681852
vt 0.335714 0.680164
vt 0.336558 0.680164
vt 0.334870 0.487306
vt 0.336558 0.481680
vt 0.336558 0.487306
vt 0.336558 0.575866
vt 0.335714 0.570240
vt 0.336558 0.570240
vt 0.336558 0.588517
vt 0.335714 0.582891
vt 0.336558 0.582891
vt 0.667071 0.689294
vt 0.666227 0.687606
vt 0.667071 0.687606
vt 0.334870 0.499957
vt 0.336558 0.494331
vt 0.336558 0.499957
vt 0.337950 0.694371
vt 0.337106 0.692683
vt 0.337950 0.692683
vt 0.334870 0.512609
vt 0.336558 0.506983
vt 0.336558 0.512609
vt 0.336558 0.601169
vt 0.335714 0.595542
vt 0.336558 0.595542
vt 0.336558 0.613820
vt 0.335714 0.608194
vt 0.336558 0.608194
vt 0.667071 0.698007
vt 0.666227 0.696319
vt 0.667071 0.696319
vt 0.334870 0.525260
vt 0.336558 0.519634
vt 0.336558 0.525260
vt 0.337950 0.703084
vt 0.337106 0.701397
vt 0.337950 0.701397
vt 0.334870 0.537912
vt 0.336558 0.532286
vt 0.336558 0.537912
vt 0.336558 0.651774
vt 0.335714 0.646148
vt 0.336558 0.646148
vt 0.336558 0.664425
vt 0.335714 0.658800
vt 0.336558 0.658800
vt 0.667071 0.671867
vt 0.666227 0.670179
vt 0.667071 0.670179
vt 0.334870 0.550563
vt 0.336558 0.544937
vt 0.336558 0.550563
vt 0.336558 0.673139
vt 0.335714 0.671451
vt 0.336558 0.671451
vt 0.334870 0.563214
vt 0.336558 0.557588
vt 0.336558 0.563214
vt 0.336558 0.626471
vt 0.335714 0.620845
vt 0.336558 0.620845
vt 0.336558 0.639123
vt 0.335714 0.633497
vt 0.336558 0.633497
vt 0.959904 0.019828
vt 0.968343 0.313505
vt 0.959904 0.313505
vt 0.321642 0.692683
vt 0.330081 0.981297
vt 0.321642 0.981297
vt 0.668780 0.313505
vt 0.652746 0.329821
vt 0.348098 0.313505
vt 0.675805 0.692683
vt 0.684244 0.981297
vt 0.675805 0.981297
vt 0.975369 0.019828
vt 0.983808 0.313505
vt 0.975369 0.313505
vt 0.959904 0.003513
vt 0.968343 0.019828
vt 0.983808 0.329821
vt 0.983808 0.019828
vt 0.975369 0.003513
vt 0.983808 0.003513
vt 0.968343 0.329821
vt 0.348098 0.646839
vt 0.348098 0.353161
vt 0.668780 0.646839
vt 0.659202 0.838959
vt 0.312928 0.849227
vt 0.312928 0.819690
vt 0.718275 0.692683
vt 0.278898 0.692683
vt 0.280586 0.696903
vt 0.278898 0.861463
vt 0.752305 0.692683
vt 0.287611 0.861463
vt 0.559347 0.670179
vt 0.625171 0.838959
vt 0.559347 0.838959
vt 0.759330 0.692683
vt 0.334870 0.438100
vt 0.339933 0.445125
vt 0.334870 0.348098
vt 0.339933 0.414196
vt 0.666227 0.680580
vt 0.334870 0.469029
vt 0.335714 0.681852
vt 0.334870 0.481680
vt 0.335714 0.575866
vt 0.335714 0.588517
vt 0.666227 0.689294
vt 0.334870 0.494331
vt 0.337106 0.694371
vt 0.334870 0.506983
vt 0.335714 0.601169
vt 0.335714 0.613820
vt 0.666227 0.698007
vt 0.334870 0.519634
vt 0.337106 0.703084
vt 0.334870 0.532286
vt 0.335714 0.651774
vt 0.335714 0.664425
vt 0.666227 0.671867
vt 0.334870 0.544937
vt 0.335714 0.673139
vt 0.334870 0.557588
vt 0.335714 0.626471
vt 0.335714 0.639123
vt 0.330081 0.692683
vt 0.364132 0.329821
vt 0.348098 0.019828
vt 0.668780 0.019828
vt 0.364132 0.003513
vt 0.652746 0.003513
vt 0.684244 0.692683
vt 0.968343 0.003513
vt 0.975369 0.329821
vt 0.959904 0.329821
vt 0.364132 0.336846
vt 0.652746 0.336846
vt 0.668780 0.353162
vt 0.652746 0.663154
vt 0.364132 0.663154
vn 0.0000 -1.0000 0.0000
vn -1.0000 0.0000 0.0000
vn 0.0000 0.0000 1.0000
vn 0.0000 1.0000 0.0000
vn 1.0000 0.0000 0.0000
vn 0.5547 0.0000 -0.8321
vn -0.5547 0.0000 0.8321
vn 0.5547 0.0000 0.8321
vn -0.5547 0.0000 -0.8321
vn 0.0000 0.0000 -1.0000
vn 0.8575 0.0000 0.5145
vn 0.8575 0.0000 -0.5145
vn -0.5480 0.0000 0.8365
vn -0.5480 0.0000 -0.8365
vn 0.5480 0.0000 -0.8365
vn 0.5480 0.0000 0.8365
vn 1.0000 0.0001 0.0000
usemtl (null)
s off
f 4/1/1 8/2/1 3/3/1
f 13/4/2 11/5/2 16/6/2
f 21/7/3 15/8/3 24/9/3
f 10/10/4 13/11/4 21/12/4
f 1/13/5 7/14/5 4/15/5
f 4/16/6 2/17/6 1/18/6
f 14/19/7 16/20/7 15/8/7
f 8/21/8 6/22/8 5/23/8
f 12/24/9 10/25/9 9/26/9
f 20/27/10 3/28/10 17/29/10
f 12/30/1 16/31/1 11/32/1
f 3/3/1 23/33/1 17/34/1
f 18/35/1 15/36/1 12/30/1
f 23/37/5 25/38/5 17/39/5
f 9/26/10 18/40/10 12/24/10
f 19/41/10 17/29/10 18/40/10
f 22/42/4 5/43/4 6/44/4
f 20/45/4 21/12/4 22/42/4
f 5/23/3 23/46/3 8/21/3
f 23/46/3 21/7/3 24/9/3
f 25/47/1 28/48/1 26/49/1
f 24/9/3 27/50/3 23/46/3
f 17/29/10 26/51/10 18/40/10
f 18/52/2 28/53/2 24/54/2
f 4/1/1 7/55/1 8/2/1
f 13/4/2 10/56/2 11/5/2
f 21/7/3 14/19/3 15/8/3
f 14/57/4 21/12/4 13/11/4
f 21/12/4 19/58/4 10/10/4
f 19/58/4 9/59/4 10/10/4
f 1/13/5 6/60/5 7/14/5
f 4/16/6 3/28/6 2/17/6
f 14/19/7 13/61/7 16/20/7
f 8/21/8 7/62/8 6/22/8
f 12/24/9 11/63/9 10/25/9
f 20/27/10 2/17/10 3/28/10
f 12/30/1 15/36/1 16/31/1
f 3/3/1 8/2/1 23/33/1
f 18/35/1 24/64/1 15/36/1
f 23/37/5 27/65/5 25/38/5
f 9/26/10 19/41/10 18/40/10
f 19/41/10 20/27/10 17/29/10
f 6/44/4 1/66/4 20/45/4
f 1/66/4 2/67/4 20/45/4
f 20/45/4 22/42/4 6/44/4
f 20/45/4 19/58/4 21/12/4
f 5/23/3 22/68/3 23/46/3
f 23/46/3 22/68/3 21/7/3
f 25/47/1 27/69/1 28/48/1
f 24/9/3 28/70/3 27/50/3
f 17/29/10 25/71/10 26/51/10
f 18/52/2 26/72/2 28/53/2
f 31/73/5 33/74/5 29/75/5
f 47/76/5 43/77/5 42/78/5
f 45/79/5 37/80/5 40/81/5
f 29/82/3 39/83/3 38/84/3
f 35/85/1 40/86/1 31/87/1
f 40/81/11 38/88/11 39/89/11
f 41/90/10 35/91/10 33/92/10
f 44/93/12 42/78/12 43/77/12
f 37/94/4 42/95/4 33/96/4
f 36/97/5 30/98/5 34/99/5
f 47/100/3 34/101/3 48/102/3
f 46/103/10 32/104/10 45/105/10
f 46/106/4 34/107/4 30/108/4
f 47/109/1 32/110/1 36/111/1
f 50/112/2 51/113/2 49/114/2
f 52/115/10 55/116/10 51/117/10
f 56/118/5 53/119/5 55/120/5
f 54/121/3 49/122/3 53/123/3
f 55/124/1 49/125/1 51/126/1
f 52/127/4 54/128/4 56/129/4
f 58/130/2 59/131/2 57/132/2
f 60/133/10 63/134/10 59/135/10
f 64/136/5 61/137/5 63/138/5
f 62/139/3 57/140/3 61/141/3
f 63/142/1 57/143/1 59/144/1
f 60/145/4 62/146/4 64/147/4
f 66/148/2 67/149/2 65/150/2
f 68/151/10 71/152/10 67/153/10
f 72/154/5 69/155/5 71/156/5
f 70/157/3 65/158/3 69/159/3
f 71/160/1 65/161/1 67/162/1
f 68/163/4 70/164/4 72/165/4
f 74/166/2 75/167/2 73/168/2
f 76/169/10 79/170/10 75/171/10
f 80/172/5 77/173/5 79/174/5
f 78/175/3 73/176/3 77/177/3
f 79/178/1 73/179/1 75/180/1
f 76/181/4 78/182/4 80/183/4
f 81/184/3 91/185/3 90/186/3
f 89/187/5 95/188/5 94/189/5
f 91/190/4 92/191/4 96/192/4
f 85/193/2 83/194/2 82/195/2
f 93/196/10 87/197/10 86/198/10
f 82/199/13 84/200/13 81/184/13
f 88/201/14 86/198/14 87/197/14
f 96/202/15 94/203/15 95/204/15
f 92/205/16 90/186/16 91/185/16
f 93/206/4 86/207/4 90/208/4
f 31/73/5 35/209/5 33/74/5
f 47/76/5 48/210/5 43/77/5
f 43/77/17 48/210/17 46/211/17
f 45/79/5 47/76/5 42/78/5
f 40/81/5 43/77/5 46/211/5
f 45/79/5 42/78/5 37/80/5
f 40/81/5 46/211/5 45/79/5
f 29/82/3 31/212/3 39/83/3
f 35/85/1 44/213/1 43/214/1
f 43/214/1 40/86/1 35/85/1
f 40/86/1 39/215/1 31/87/1
f 40/81/11 37/80/11 38/88/11
f 41/90/10 44/216/10 35/91/10
f 44/93/12 41/217/12 42/78/12
f 42/95/4 41/218/4 33/96/4
f 33/96/4 29/219/4 37/94/4
f 29/219/4 38/220/4 37/94/4
f 36/97/5 32/221/5 30/98/5
f 47/100/3 36/222/3 34/101/3
f 46/103/10 30/223/10 32/104/10
f 46/106/4 48/224/4 34/107/4
f 47/109/1 45/225/1 32/110/1
f 50/112/2 52/226/2 51/113/2
f 52/115/10 56/227/10 55/116/10
f 56/118/5 54/228/5 53/119/5
f 54/121/3 50/229/3 49/122/3
f 55/124/1 53/230/1 49/125/1
f 52/127/4 50/231/4 54/128/4
f 58/130/2 60/232/2 59/131/2
f 60/133/10 64/233/10 63/134/10
f 64/136/5 62/234/5 61/137/5
f 62/139/3 58/235/3 57/140/3
f 63/142/1 61/236/1 57/143/1
f 60/145/4 58/237/4 62/146/4
f 66/148/2 68/238/2 67/149/2
f 68/151/10 72/239/10 71/152/10
f 72/154/5 70/240/5 69/155/5
f 70/157/3 66/241/3 65/158/3
f 71/160/1 69/242/1 65/161/1
f 68/163/4 66/243/4 70/164/4
f 74/166/2 76/244/2 75/167/2
f 76/169/10 80/245/10 79/170/10
f 80/172/5 78/246/5 77/173/5
f 78/175/3 74/247/3 73/176/3
f 79/178/1 77/248/1 73/179/1
f 76/181/4 74/249/4 78/182/4
f 81/184/3 84/200/3 91/185/3
f 89/187/5 92/250/5 95/188/5
f 92/191/4 95/251/4 96/192/4
f 96/192/4 87/252/4 84/253/4
f 87/252/4 88/254/4 84/253/4
f 88/254/4 83/255/4 84/253/4
f 84/253/4 91/190/4 96/192/4
f 85/193/2 88/256/2 83/194/2
f 93/196/10 96/202/10 87/197/10
f 82/199/13 83/257/13 84/200/13
f 88/201/14 85/258/14 86/198/14
f 96/202/15 93/196/15 94/203/15
f 92/205/16 89/259/16 90/186/16
f 86/207/4 85/260/4 82/261/4
f 82/261/4 81/262/4 86/207/4
f 81/262/4 90/208/4 86/207/4
f 90/208/4 89/263/4 94/264/4
f 94/264/4 93/206/4 90/208/4
