# Blender 3.5.1
# www.blender.org
mtllib Fit_JianPan_1X5_new.mtl
o Fit_JianPan_1X5
v -1.743630 -0.500000 0.457800
v -1.743630 -0.500000 -0.543700
v 1.753470 -0.500000 -0.543700
v 1.753470 -0.500000 0.457800
v -1.743630 -0.456000 0.457800
v 1.753470 -0.456000 0.457800
v 1.753470 -0.456000 -0.543700
v -1.743630 -0.456000 -0.543700
vn -0.0000 -1.0000 -0.0000
vn -0.0000 1.0000 -0.0000
vn -0.0000 -0.0000 1.0000
vn 1.0000 -0.0000 -0.0000
vn -0.0000 -0.0000 -1.0000
vn -1.0000 -0.0000 -0.0000
vt 0.001500 0.145700
vt 0.001500 0.433200
vt 0.996200 0.433200
vt 0.996200 0.145700
vt 0.001500 0.145700
vt 0.996200 0.145700
vt 0.996200 0.433200
vt 0.001500 0.433200
s 1
usemtl Material__25
f 1/1/1 2/2/1 3/3/1 4/4/1
f 5/5/2 6/6/2 7/7/2 8/8/2
f 1/1/3 4/4/3 6/6/3 5/5/3
f 4/4/4 3/3/4 7/7/4 6/6/4
f 3/3/5 2/2/5 8/8/5 7/7/5
f 2/2/6 1/1/6 5/5/6 8/8/6
